<?xml version="1.0" standalone="no"?>
<!DOCTYPE svg PUBLIC "-//W3C//DTD SVG 20010904//EN"
 "http://www.w3.org/TR/2001/REC-SVG-20010904/DTD/svg10.dtd">
<svg version="1.0" xmlns="http://www.w3.org/2000/svg"
 width="360.000000pt" height="232.000000pt" viewBox="0 0 360.000000 232.000000"
 preserveAspectRatio="xMidYMid meet">

<g transform="translate(0.000000,232.000000) scale(0.100000,-0.100000)"
fill="#000000" stroke="none">
<path d="M1257 2103 c-4 -3 -7 -13 -7 -22 1 -13 3 -13 11 2 11 19 8 33 -4 20z"/>
<path d="M1316 2101 c-3 -5 1 -11 9 -15 8 -3 15 -12 15 -21 0 -8 5 -15 10 -15
14 0 13 33 -2 48 -14 14 -25 15 -32 3z"/>
<path d="M1101 1996 c-10 -26 -11 -26 -121 -26 -117 0 -159 -12 -180 -49 -6
-13 -10 -219 -10 -595 l0 -575 24 -28 24 -28 271 -3 271 -3 0 -94 0 -94 38
-21 c20 -12 183 -98 362 -191 291 -152 391 -199 367 -173 -4 4 -173 94 -375
200 l-367 192 -3 101 -3 101 199 0 199 0 24 26 24 26 5 338 5 339 295 -158
295 -159 5 -93 c4 -63 8 -88 14 -76 5 10 16 17 25 16 23 -3 91 29 98 46 3 8
14 15 24 15 18 0 20 7 17 93 l-3 92 -370 197 c-234 125 -376 196 -387 192 -17
-5 -18 6 -18 146 0 218 -1 219 -182 220 -107 0 -128 -2 -128 -15 0 -12 19 -15
115 -15 102 0 117 -2 135 -20 20 -20 20 -33 20 -576 0 -364 -4 -562 -10 -575
-10 -18 -26 -19 -468 -19 -343 0 -461 3 -470 12 -9 9 -12 151 -12 579 l0 568
22 15 c17 12 49 16 129 16 l107 0 7 36 c8 44 -1 56 -14 20z"/>
<path d="M1162 1753 c3 -17 26 -18 291 -21 282 -2 287 -2 287 18 0 20 -6 20
-291 20 -271 0 -290 -1 -287 -17z"/>
<path d="M1160 1580 c0 -20 7 -20 290 -20 283 0 290 0 290 20 0 20 -7 20 -290
20 -283 0 -290 0 -290 -20z"/>
<path d="M960 1491 c0 -5 10 -15 23 -24 l22 -15 -24 -26 c-31 -33 -19 -47 14
-16 l25 23 25 -23 c21 -19 25 -21 25 -7 0 9 -5 17 -10 17 -20 0 -22 31 -5 50
23 25 11 39 -13 17 -23 -21 -36 -21 -52 -2 -14 17 -30 20 -30 6z"/>
<path d="M1162 1403 c3 -17 26 -18 291 -21 282 -2 287 -2 287 18 0 20 -6 20
-291 20 -271 0 -290 -1 -287 -17z"/>
<path d="M1160 1230 c0 -20 7 -20 290 -20 283 0 290 0 290 20 0 20 -7 20 -290
20 -283 0 -290 0 -290 -20z"/>
<path d="M960 1144 c0 -3 10 -14 23 -24 l22 -18 -24 -26 c-31 -33 -19 -47 14
-16 l25 23 25 -23 c21 -19 25 -21 25 -7 0 9 -9 22 -20 29 -19 12 -19 13 2 35
25 27 16 44 -10 20 -23 -21 -36 -21 -52 -2 -12 15 -30 20 -30 9z"/>
<path d="M1162 1053 c3 -17 25 -18 288 -18 263 0 285 1 288 18 3 16 -16 17
-288 17 -272 0 -291 -1 -288 -17z"/>
<path d="M960 972 c0 -5 9 -17 20 -27 l20 -18 -22 -24 c-28 -30 -15 -44 14
-15 l22 22 23 -22 c13 -12 26 -18 30 -15 3 4 -3 17 -15 30 l-22 23 22 22 c12
12 19 25 15 28 -4 4 -16 -3 -27 -16 l-20 -23 -23 21 c-25 23 -37 28 -37 14z"/>
<path d="M1160 880 c0 -20 7 -20 290 -20 283 0 290 0 290 20 0 20 -7 20 -290
20 -283 0 -290 0 -290 -20z"/>
<path d="M2688 789 c-37 -19 -38 -21 -38 -73 0 -69 7 -86 35 -86 33 0 57 43
63 117 5 72 1 75 -60 42z"/>
<path d="M2567 686 c-9 -25 -14 -46 -12 -46 2 0 16 5 30 12 28 13 30 22 11 57
-13 23 -13 23 -29 -23z"/>
<path d="M2492 651 c-16 -53 -16 -54 18 -36 30 15 30 16 15 45 -9 17 -17 30
-19 30 -1 0 -8 -17 -14 -39z"/>
<path d="M2370 613 c-27 -26 -72 -110 -53 -101 68 31 143 75 143 85 0 12 -37
43 -52 43 -4 0 -21 -12 -38 -27z"/>
<path d="M2583 565 c0 -44 2 -61 4 -37 2 23 2 59 0 80 -2 20 -4 1 -4 -43z"/>
<path d="M2690 574 c0 -19 -5 -44 -10 -55 -12 -22 -5 -24 29 -5 15 8 20 16 12
20 -6 4 -11 23 -11 42 0 19 -4 34 -10 34 -5 0 -10 -16 -10 -36z"/>
<path d="M2500 518 c0 -39 3 -69 6 -65 9 9 10 137 2 137 -5 0 -8 -32 -8 -72z"/>
<path d="M2382 447 c-2 -63 1 -79 14 -84 9 -3 20 0 25 8 14 23 10 34 -5 13
-19 -25 -24 -11 -29 76 l-3 65 -2 -78z"/>
<path d="M2537 449 c-32 -16 -55 -34 -52 -38 6 -11 115 46 115 60 0 11 5 13
-63 -22z"/>
</g>
</svg>
