<svg xmlns="http://www.w3.org/2000/svg" fill="none" viewBox="0 0 400 80">
  <path fill="#000" d="M20 0h20l40 60V0h20v80h-20L40 20v60H20V0ZM120 0h60v12.7h-40v20h40v12.6h-40v21h40V80h-60V0ZM200 0h-20l60 80h20l-30-40 30-40h-20l-20 27L200 0Zm15 56-10-12-28 36h20l18-24ZM260 0h68v12.7h-27v66.6h-14V12.7h-27V0ZM360 0h20v80h-20V0ZM320 45h8v23c0 2-1 4-2 6-1 1-3 2-6 2s-5-1-6-2a10 10 0 0 1-2-6h7c0 1 0 2 1 3 1 1 2 1 3 1 2 0 3-1 4-2 1-1 1-2 1-3V45ZM390 54c-1-2-3-3-6-3s-5 1-6 3a5 5 0 0 0 0 6c1 1 3 2 6 3l3 1c2 1 3 2 4 3 1 2 1 3 1 5s-1 4-2 6c-2 1-4 3-8 3-3 0-6-1-8-3s-3-4-3-7h7c0 1 1 3 2 3 2 1 3 1 5 1 1 0 2 0 3-1 1 0 2-2 2-3s0-2-1-3c-1-1-3-2-6-3l-3-1c-2-1-4-2-5-3-2-2-3-4-3-7s1-5 3-7c3-2 5-3 9-3 3 0 6 1 8 3s3 4 3 7h-7Z"/>
</svg>
